<svg width="100" height="100" viewBox="0 0 100 100" fill="none" xmlns="http://www.w3.org/2000/svg">
<path fill-rule="evenodd" clip-rule="evenodd" d="M2.3464 21.7275C1 24.3643 1 27.8143 1 34.7143V64.2857C1 71.1857 1 74.6357 2.3464 77.2725C3.53388 79.5903 5.4278 81.4743 7.75675 82.6545C10.405 84 13.87 84 20.8 84H80.2C87.13 84 90.595 84 93.2432 82.6545C95.5704 81.4734 97.4625 79.5895 98.6486 77.2725C100 74.6357 100 71.1857 100 64.2857V34.7143C100 27.8143 100 24.3643 98.6486 21.7275C97.4633 19.4086 95.5711 17.5229 93.2432 16.3406C90.595 15 87.13 15 80.2 15H20.8C13.87 15 10.405 15 7.75675 16.3406C5.42705 17.5221 3.53304 19.4079 2.3464 21.7275ZM14.1026 24.8571H86.8973C87.4288 24.8565 87.9463 25.0262 88.3734 25.3411C88.8005 25.656 89.1144 26.0994 89.2687 26.6058C89.423 27.1121 89.4096 27.6544 89.2304 28.1526C89.0511 28.6507 88.7156 29.0782 88.2734 29.3717L53.2522 52.6937C52.4377 53.2362 51.4799 53.5257 50.5 53.5257C49.5201 53.5257 48.5623 53.2362 47.7478 52.6937L12.7265 29.3717C12.2844 29.0782 11.9489 28.6507 11.7696 28.1526C11.5904 27.6544 11.577 27.1121 11.7313 26.6058C11.8856 26.0994 12.1995 25.656 12.6266 25.3411C13.0537 25.0262 13.5712 24.8565 14.1026 24.8571Z" fill="#fe4d2b"/>
</svg>
