<svg width="100" height="100" viewBox="0 0 100 100" fill="none" xmlns="http://www.w3.org/2000/svg">
<g clip-path="url(#clip0_796078_581)">
<path d="M23.2774 32.171H3.20226C2.31129 32.171 1.58936 32.8932 1.58936 33.7839V98.2768C1.58936 99.1677 2.31129 99.8897 3.20226 99.8897H23.2774C24.1684 99.8897 24.8903 99.1677 24.8903 98.2768V33.7839C24.8903 32.8932 24.1684 32.171 23.2774 32.171Z" fill="#fe4d2b"/>
<path d="M13.2471 0.109985C5.94258 0.109985 0 6.04611 0 13.3426C0 20.6422 5.94258 26.5806 13.2471 26.5806C20.5458 26.5806 26.4835 20.6419 26.4835 13.3426C26.4839 6.04611 20.5458 0.109985 13.2471 0.109985Z" fill="#fe4d2b"/>
<path d="M74.3402 30.5681C66.2773 30.5681 60.3169 34.0342 56.7018 37.9726V33.7839C56.7018 32.8932 55.9798 32.171 55.0889 32.171H35.8634C34.9724 32.171 34.2505 32.8932 34.2505 33.7839V98.2768C34.2505 99.1677 34.9724 99.8897 35.8634 99.8897H55.8947C56.7856 99.8897 57.5076 99.1677 57.5076 98.2768V66.3677C57.5076 55.6151 60.4282 51.4261 67.9237 51.4261C76.0869 51.4261 76.7356 58.1416 76.7356 66.921V98.2771C76.7356 99.168 77.4576 99.89 78.3486 99.89H98.3873C99.2782 99.89 100 99.168 100 98.2771V62.9016C100 46.9129 96.9514 30.5681 74.3402 30.5681Z" fill="#fe4d2b"/>
</g>
<defs>
<clipPath id="clip0_796078_581">
<rect width="100" height="100" fill="white"/>
</clipPath>
</defs>
</svg>
